<mxfile host="app.diagrams.net" modified="2022-02-13T04:02:51.658Z" agent="5.0 (Macintosh)" etag="87Fuj1lyLNNBUIsMAB-B" version="16.5.6" type="github">
  <diagram id="K0j7m1-gv8P_pgjart2G" name="Page-1">
    <mxGraphModel dx="942" dy="574" grid="1" gridSize="10" guides="1" tooltips="1" connect="1" arrows="1" fold="1" page="1" pageScale="1" pageWidth="850" pageHeight="1100" math="0" shadow="0">
      <root>
        <mxCell id="0" />
        <mxCell id="1" parent="0" />
        <mxCell id="8Beqg3xJXMq5bIABd2ei-3" value="&lt;font style=&quot;font-size: 24px&quot;&gt;The Dental Course Hub&lt;/font&gt;" style="shape=partialRectangle;whiteSpace=wrap;html=1;left=0;right=0;fillColor=none;fontFamily=Lucida Console;" vertex="1" parent="1">
          <mxGeometry y="10" width="280" height="40" as="geometry" />
        </mxCell>
        <mxCell id="8Beqg3xJXMq5bIABd2ei-5" value="Location" style="text;html=1;strokeColor=none;fillColor=none;align=center;verticalAlign=middle;whiteSpace=wrap;rounded=0;fontSize=16;fontFamily=Lucida Console;" vertex="1" parent="1">
          <mxGeometry y="70" width="110" height="30" as="geometry" />
        </mxCell>
        <mxCell id="8Beqg3xJXMq5bIABd2ei-6" value="Specialty" style="text;html=1;strokeColor=none;fillColor=none;align=center;verticalAlign=middle;whiteSpace=wrap;rounded=0;fontSize=17;fontFamily=Lucida Console;" vertex="1" parent="1">
          <mxGeometry x="100" y="70" width="130" height="30" as="geometry" />
        </mxCell>
        <mxCell id="8Beqg3xJXMq5bIABd2ei-7" value="Virtual" style="text;html=1;strokeColor=none;fillColor=none;align=center;verticalAlign=middle;whiteSpace=wrap;rounded=0;fontSize=17;fontFamily=Lucida Console;" vertex="1" parent="1">
          <mxGeometry x="230" y="70" width="80" height="30" as="geometry" />
        </mxCell>
        <mxCell id="8Beqg3xJXMq5bIABd2ei-9" value="All Courses" style="text;html=1;strokeColor=none;fillColor=none;align=center;verticalAlign=middle;whiteSpace=wrap;rounded=0;fontSize=17;fontFamily=Lucida Console;" vertex="1" parent="1">
          <mxGeometry x="300" y="70" width="160" height="30" as="geometry" />
        </mxCell>
        <mxCell id="8Beqg3xJXMq5bIABd2ei-10" style="edgeStyle=orthogonalEdgeStyle;rounded=0;orthogonalLoop=1;jettySize=auto;html=1;exitX=0.5;exitY=1;exitDx=0;exitDy=0;fontSize=24;" edge="1" parent="1" source="8Beqg3xJXMq5bIABd2ei-5" target="8Beqg3xJXMq5bIABd2ei-5">
          <mxGeometry relative="1" as="geometry" />
        </mxCell>
        <mxCell id="8Beqg3xJXMq5bIABd2ei-14" value="" style="rounded=0;whiteSpace=wrap;html=1;fontFamily=Lucida Console;fontSize=17;" vertex="1" parent="1">
          <mxGeometry x="10" y="100" width="780" height="360" as="geometry" />
        </mxCell>
        <mxCell id="8Beqg3xJXMq5bIABd2ei-16" value="" style="shape=image;html=1;verticalLabelPosition=bottom;verticalAlign=top;imageAspect=0;image=img/clipart/Gear_128x128.png;fontFamily=Lucida Console;fontSize=17;" vertex="1" parent="1">
          <mxGeometry x="80" y="470" width="80" height="80" as="geometry" />
        </mxCell>
        <mxCell id="8Beqg3xJXMq5bIABd2ei-17" value="" style="shape=image;html=1;verticalLabelPosition=bottom;verticalAlign=top;imageAspect=0;image=img/clipart/Gear_128x128.png;fontFamily=Lucida Console;fontSize=17;" vertex="1" parent="1">
          <mxGeometry x="270" y="480" width="80" height="80" as="geometry" />
        </mxCell>
        <mxCell id="8Beqg3xJXMq5bIABd2ei-18" value="" style="shape=image;html=1;verticalLabelPosition=bottom;verticalAlign=top;imageAspect=0;image=img/clipart/Gear_128x128.png;fontFamily=Lucida Console;fontSize=17;" vertex="1" parent="1">
          <mxGeometry x="460" y="480" width="80" height="80" as="geometry" />
        </mxCell>
        <mxCell id="8Beqg3xJXMq5bIABd2ei-19" value="" style="shape=image;html=1;verticalLabelPosition=bottom;verticalAlign=top;imageAspect=0;image=img/clipart/Gear_128x128.png;fontFamily=Lucida Console;fontSize=17;" vertex="1" parent="1">
          <mxGeometry x="670" y="480" width="80" height="80" as="geometry" />
        </mxCell>
        <mxCell id="8Beqg3xJXMq5bIABd2ei-20" value="Photo of Dentists living laughing and loving" style="text;html=1;strokeColor=none;fillColor=none;align=center;verticalAlign=middle;whiteSpace=wrap;rounded=0;fontFamily=Lucida Console;fontSize=17;" vertex="1" parent="1">
          <mxGeometry x="50" y="280" width="350" height="110" as="geometry" />
        </mxCell>
        <mxCell id="8Beqg3xJXMq5bIABd2ei-21" value="" style="verticalLabelPosition=bottom;verticalAlign=top;html=1;shape=mxgraph.basic.half_circle;fontFamily=Lucida Console;fontSize=17;" vertex="1" parent="1">
          <mxGeometry x="260" y="20" width="50" height="20" as="geometry" />
        </mxCell>
        <mxCell id="8Beqg3xJXMq5bIABd2ei-22" value="Featured Programs" style="text;html=1;strokeColor=none;fillColor=none;align=center;verticalAlign=middle;whiteSpace=wrap;rounded=0;fontFamily=Lucida Console;fontSize=17;" vertex="1" parent="1">
          <mxGeometry x="450" y="70" width="150" height="30" as="geometry" />
        </mxCell>
      </root>
    </mxGraphModel>
  </diagram>
</mxfile>
